<svg width="48" height="48" viewBox="0 0 48 48" fill="none" xmlns="http://www.w3.org/2000/svg">
<rect width="48" height="48" rx="12" fill="url(#paint0_linear_120_3974)" fill-opacity="0.1"/>
<path fill-rule="evenodd" clip-rule="evenodd" d="M18.5523 12.3338H29.4478C33.4157 12.3338 35.6557 14.5843 35.6673 18.5521V29.4488C35.6673 33.4155 33.4157 35.6671 29.4478 35.6671H18.5523C14.5845 35.6671 12.334 33.4155 12.334 29.4488V18.5521C12.334 14.5843 14.5845 12.3338 18.5523 12.3338ZM24.0584 30.8371C24.5613 30.8371 24.9801 30.4638 25.0268 29.9621V18.0738C25.0734 17.7121 24.8996 17.3493 24.5846 17.1521C24.2568 16.9538 23.8601 16.9538 23.5463 17.1521C23.2301 17.3493 23.0563 17.7121 23.0901 18.0738V29.9621C23.1496 30.4638 23.5684 30.8371 24.0584 30.8371ZM29.4251 30.8371C29.9151 30.8371 30.3339 30.4638 30.3934 29.9621V26.1355C30.4272 25.761 30.2534 25.4121 29.9372 25.2138C29.6234 25.0155 29.2267 25.0155 28.9001 25.2138C28.5839 25.4121 28.4101 25.761 28.4567 26.1355V29.9621C28.5034 30.4638 28.9222 30.8371 29.4251 30.8371ZM19.5903 29.9622C19.5437 30.4638 19.1248 30.8372 18.622 30.8372C18.1203 30.8372 17.7003 30.4638 17.6548 29.9622V21.9005C17.6198 21.5377 17.7937 21.1772 18.1098 20.9788C18.4237 20.7805 18.8215 20.7805 19.1365 20.9788C19.4503 21.1772 19.6265 21.5377 19.5903 21.9005V29.9622Z" fill="url(#paint1_linear_120_3974)"/>
<defs>
<linearGradient id="paint0_linear_120_3974" x1="3.19212" y1="19.5" x2="42.025" y2="22.7489" gradientUnits="userSpaceOnUse">
<stop stop-color="#68C9FF"/>
<stop offset="0.994746" stop-color="#D1B5FF"/>
</linearGradient>
<linearGradient id="paint1_linear_120_3974" x1="13.8857" y1="21.813" x2="32.7628" y2="23.3923" gradientUnits="userSpaceOnUse">
<stop stop-color="#68C9FF"/>
<stop offset="0.994746" stop-color="#D1B5FF"/>
</linearGradient>
</defs>
</svg>
