<svg width="18" height="19" viewBox="0 0 18 19" fill="none" xmlns="http://www.w3.org/2000/svg">
<path fill-rule="evenodd" clip-rule="evenodd" d="M8.99988 0.541992C6.97475 0.541992 5.30481 2.06278 5.06984 4.02462C4.74174 4.08746 4.43949 4.17829 4.14956 4.31121C3.31169 4.6953 2.60239 5.3129 2.10668 6.08996C1.80665 6.56028 1.62861 7.08641 1.48876 7.72822C1.35174 8.35703 1.24286 9.14098 1.10434 10.1383L1.09667 10.1936C0.918414 11.477 0.779065 12.4803 0.736741 13.2884C0.693768 14.1089 0.745753 14.7927 0.992587 15.4204C1.39602 16.4464 2.14093 17.302 3.10169 17.8427C3.68951 18.1735 4.35963 18.3191 5.17826 18.3894C5.98453 18.4587 6.99744 18.4587 8.29316 18.4587H9.70659C11.0023 18.4587 12.0152 18.4587 12.8215 18.3894C13.6401 18.3191 14.3102 18.1735 14.8981 17.8427C15.8588 17.302 16.6037 16.4464 17.0072 15.4204C17.254 14.7927 17.306 14.1089 17.263 13.2884C17.2207 12.4802 17.0813 11.4769 16.9031 10.1935L16.8954 10.1383C16.7569 9.14096 16.648 8.35703 16.511 7.72822C16.3711 7.08641 16.1931 6.56028 15.8931 6.08996C15.3974 5.3129 14.6881 4.6953 13.8502 4.31121C13.5603 4.17829 13.258 4.08746 12.9299 4.02462C12.6949 2.06278 11.025 0.541992 8.99988 0.541992ZM8.28538 3.87533C7.53365 3.87532 6.90089 3.87532 6.35912 3.89644C6.63355 2.69136 7.71168 1.79199 8.99988 1.79199C10.2881 1.79199 11.3662 2.69136 11.6406 3.89644C11.0989 3.87532 10.4661 3.87532 9.71437 3.87533H8.28538ZM5.66659 6.37533C5.32141 6.37533 5.04159 6.65515 5.04159 7.00033C5.04159 7.3455 5.32141 7.62533 5.66659 7.62533H12.3333C12.6784 7.62533 12.9583 7.3455 12.9583 7.00033C12.9583 6.65515 12.6784 6.37533 12.3333 6.37533H5.66659Z" fill="#525960"/>
</svg>
