<svg width="19" height="17" viewBox="0 0 19 17" fill="none" xmlns="http://www.w3.org/2000/svg">
<path d="M3.45163 3.55459C4.07587 3.50033 4.86538 3.50033 5.92609 3.50033H7.40757C9.48184 3.50033 10.519 3.50033 11.3112 3.9061C12.0081 4.26303 12.5747 4.83256 12.9298 5.53307C13.3335 6.32945 13.3335 7.37196 13.3335 9.45699V11.4665C13.3335 11.6747 13.3335 11.7788 13.3294 11.8668C13.2646 13.2419 12.4615 14.4198 11.3088 15.0098L12.4514 15.8248C13.1972 16.3568 14.1773 15.5885 13.8369 14.7387C13.5958 14.1367 14.0397 13.4819 14.689 13.4819H15.1904C16.9263 13.4819 18.3335 12.0766 18.3335 10.3432V6.82444C18.3335 4.49411 18.3335 3.32895 17.8794 2.43888C17.4799 1.65596 16.8425 1.01942 16.0585 0.620503C15.1672 0.166992 14.0004 0.166992 11.6668 0.166992H10.0002C7.66661 0.166992 6.49983 0.166992 5.60853 0.620503C4.82453 1.01942 4.18711 1.65596 3.78763 2.43888C3.6234 2.76077 3.51856 3.11864 3.45163 3.55459Z" fill="url(#paint0_linear_2233_2461)"/>
<path fill-rule="evenodd" clip-rule="evenodd" d="M12.1469 6.12726C12.5002 6.82994 12.5002 7.74981 12.5002 9.58953V11.3626C12.5002 11.5463 12.5002 11.6382 12.4965 11.7158C12.4175 13.4079 11.082 14.7616 9.41267 14.8417C9.33609 14.8454 9.23499 14.8454 9.0328 14.8454L8.98092 14.8455C8.31965 14.8498 7.67551 15.059 7.13495 15.4451L7.10058 15.4699L5.40844 16.6951C4.82835 17.1151 4.06609 16.5085 4.33084 15.8376C4.51838 15.3624 4.17309 14.8454 3.66812 14.8454H3.27809C1.92798 14.8454 0.833496 13.736 0.833496 12.3675V9.58953C0.833496 7.74981 0.833496 6.82994 1.18672 6.12726C1.49742 5.50916 1.99319 5.00663 2.60297 4.69169C3.2962 4.33366 4.2037 4.33366 6.01868 4.33366H7.31498C9.12996 4.33366 10.0375 4.33366 10.7307 4.69169C11.3405 5.00663 11.8362 5.50916 12.1469 6.12726ZM4.16683 11.0003C4.62707 11.0003 5.00016 10.6272 5.00016 10.167C5.00016 9.70676 4.62707 9.33366 4.16683 9.33366C3.70659 9.33366 3.3335 9.70676 3.3335 10.167C3.3335 10.6272 3.70659 11.0003 4.16683 11.0003ZM7.50016 10.167C7.50016 10.6272 7.12707 11.0003 6.66683 11.0003C6.20659 11.0003 5.8335 10.6272 5.8335 10.167C5.8335 9.70676 6.20659 9.33366 6.66683 9.33366C7.12707 9.33366 7.50016 9.70676 7.50016 10.167ZM9.16683 11.0003C9.62707 11.0003 10.0002 10.6272 10.0002 10.167C10.0002 9.70676 9.62707 9.33366 9.16683 9.33366C8.70659 9.33366 8.3335 9.70676 8.3335 10.167C8.3335 10.6272 8.70659 11.0003 9.16683 11.0003Z" fill="url(#paint1_linear_2233_2461)"/>
<defs>
<linearGradient id="paint0_linear_2233_2461" x1="1.99729" y1="6.93782" x2="16.145" y2="8.18067" gradientUnits="userSpaceOnUse">
<stop stop-color="#68C9FF"/>
<stop offset="0.994746" stop-color="#D1B5FF"/>
</linearGradient>
<linearGradient id="paint1_linear_2233_2461" x1="1.99729" y1="6.93782" x2="16.145" y2="8.18067" gradientUnits="userSpaceOnUse">
<stop stop-color="#68C9FF"/>
<stop offset="0.994746" stop-color="#D1B5FF"/>
</linearGradient>
</defs>
</svg>
