<svg width="15" height="15" viewBox="0 0 15 15" fill="none" xmlns="http://www.w3.org/2000/svg">
<path d="M14.3784 13.3726L11.7505 10.7659C12.7706 9.49402 13.2645 7.87965 13.1309 6.25474C12.9972 4.62982 12.2461 3.11787 11.0319 2.02977C9.8177 0.941673 8.23276 0.360135 6.60297 0.404732C4.97318 0.449328 3.42241 1.11667 2.26954 2.26954C1.11667 3.42241 0.449328 4.97318 0.404732 6.60297C0.360135 8.23276 0.941673 9.8177 2.02977 11.0319C3.11787 12.2461 4.62982 12.9972 6.25474 13.1309C7.87965 13.2645 9.49402 12.7706 10.7659 11.7505L13.3726 14.3571C13.4384 14.4235 13.5168 14.4762 13.6031 14.5122C13.6894 14.5482 13.782 14.5667 13.8755 14.5667C13.969 14.5667 14.0616 14.5482 14.1479 14.5122C14.2342 14.4762 14.3125 14.4235 14.3784 14.3571C14.5061 14.2251 14.5774 14.0486 14.5774 13.8649C14.5774 13.6812 14.5061 13.5046 14.3784 13.3726ZM6.79215 11.7505C5.81148 11.7505 4.85284 11.4597 4.03745 10.9149C3.22205 10.37 2.58653 9.59564 2.21125 8.68962C1.83596 7.7836 1.73777 6.78665 1.92909 5.82483C2.12041 4.863 2.59264 3.97951 3.28608 3.28608C3.97951 2.59264 4.863 2.12041 5.82483 1.92909C6.78665 1.73777 7.7836 1.83596 8.68962 2.21125C9.59564 2.58653 10.37 3.22205 10.9149 4.03745C11.4597 4.85284 11.7505 5.81148 11.7505 6.79215C11.7505 8.10718 11.2281 9.36835 10.2982 10.2982C9.36835 11.2281 8.10718 11.7505 6.79215 11.7505Z" fill="#C8D2DC"/>
</svg>
